<svg xmlns="http://www.w3.org/2000/svg" viewBox="0 0 100 100">
<polygon points="50.00,93.40 18.20,40.00 18.40,36.44 19.00,32.92 19.98,29.50 21.35,26.20 23.07,23.08 25.14,20.17 27.51,17.51 30.17,15.14 33.08,13.07 36.20,11.35 39.50,9.98 42.92,9.00 46.44,8.40 50.00,8.20 53.56,8.40 57.08,9.00 60.50,9.98 63.80,11.35 66.92,13.07 69.83,15.14 72.49,17.51 74.86,20.17 76.93,23.08 78.65,26.20 80.02,29.50 81.00,32.92 81.60,36.44 81.80,40.00" fill="#ffc72c"/>
<polygon points="50.00,91.60 20.00,40.00 20.19,36.64 20.75,33.32 21.68,30.09 22.97,26.98 24.60,24.04 26.55,21.30 28.79,18.79 31.30,16.55 34.04,14.60 36.98,12.97 40.09,11.68 43.32,10.75 46.64,10.19 50.00,10.00 53.36,10.19 56.68,10.75 59.91,11.68 63.02,12.97 65.96,14.60 68.70,16.55 71.21,18.79 73.45,21.30 75.40,24.04 77.03,26.98 78.32,30.09 79.25,33.32 79.81,36.64 80.00,40.00" fill="#101010"/>
<polygon points="27.02,23.64 54.14,31.38 54.86,31.88 55.51,32.46 56.10,33.11 56.60,33.83 57.03,34.59 57.37,35.40 57.61,36.24 57.76,37.11 57.81,37.98 57.77,38.86 57.62,39.72 57.38,40.56 57.05,41.37 56.62,42.14 56.12,42.86 55.54,43.51 54.89,44.10 54.17,44.60 53.41,45.03 52.60,45.37 51.76,45.61 50.89,45.76 50.02,45.81 49.14,45.77 48.28,45.62 47.44,45.38 46.63,45.05 45.86,44.62" fill="#ffc72c"/>
<polygon points="33.17,6.35 56.90,34.33 57.26,35.13 57.54,35.96 57.72,36.82 57.81,37.69 57.79,38.56 57.68,39.43 57.47,40.28 57.17,41.11 56.78,41.89 56.30,42.62 55.74,43.30 55.11,43.91 54.42,44.44 53.67,44.90 52.87,45.26 52.04,45.54 51.18,45.72 50.31,45.81 49.44,45.79 48.57,45.68 47.72,45.47 46.89,45.17 46.11,44.78 45.38,44.30 44.70,43.74 44.09,43.11 43.56,42.42 43.10,41.67" fill="#ffc72c"/>
<polygon points="50.00,-5.71 57.81,38.00 57.76,38.87 57.62,39.74 57.37,40.58 57.04,41.39 56.61,42.16 56.11,42.87 55.52,43.52 54.87,44.11 54.16,44.61 53.39,45.04 52.58,45.37 51.74,45.62 50.87,45.76 50.00,45.81 49.13,45.76 48.26,45.62 47.42,45.37 46.61,45.04 45.84,44.61 45.13,44.11 44.48,43.52 43.89,42.87 43.39,42.16 42.96,41.39 42.63,40.58 42.38,39.74 42.24,38.87 42.19,38.00" fill="#ffc72c"/>
<polygon points="66.83,6.35 56.90,41.67 56.44,42.42 55.91,43.11 55.30,43.74 54.62,44.30 53.89,44.78 53.11,45.17 52.28,45.47 51.43,45.68 50.56,45.79 49.69,45.81 48.82,45.72 47.96,45.54 47.13,45.26 46.33,44.90 45.58,44.44 44.89,43.91 44.26,43.30 43.70,42.62 43.22,41.89 42.83,41.11 42.53,40.28 42.32,39.43 42.21,38.56 42.19,37.69 42.28,36.82 42.46,35.96 42.74,35.13 43.10,34.33" fill="#ffc72c"/>
<polygon points="72.98,23.64 54.14,44.62 53.37,45.05 52.56,45.38 51.72,45.62 50.86,45.77 49.98,45.81 49.11,45.76 48.24,45.61 47.40,45.37 46.59,45.03 45.83,44.60 45.11,44.10 44.46,43.51 43.88,42.86 43.38,42.14 42.95,41.37 42.62,40.56 42.38,39.72 42.23,38.86 42.19,37.98 42.24,37.11 42.39,36.24 42.63,35.40 42.97,34.59 43.40,33.83 43.90,33.11 44.49,32.46 45.14,31.88 45.86,31.38" fill="#ffc72c"/>
<line x1="50.00" y1="44.00" x2="50.00" y2="56.60" stroke="#ffc72c" stroke-width="2.20" stroke-linecap="round"/>
</svg>